<svg width="32" height="32" viewBox="0 0 32 32" fill="none" xmlns="http://www.w3.org/2000/svg">
<path d="M15.6513 9.30431L16 9.64356L16.3487 9.30431C17.2873 8.39104 18.8089 7.5 20.5 7.5C23.2441 7.5 25.5 9.6905 25.5 12.8378C25.5 16.0445 23.7369 18.5965 21.5995 20.5572C19.7055 22.2947 17.5719 23.5197 16.2275 24.2914C16.1489 24.3366 16.073 24.3802 16 24.4222C15.927 24.3802 15.8511 24.3366 15.7725 24.2914C14.4281 23.5197 12.2945 22.2947 10.4005 20.5572C8.26315 18.5965 6.5 16.0445 6.5 12.8378C6.5 9.69279 8.79167 7.5 11.5 7.5C13.1911 7.5 14.7127 8.39104 15.6513 9.30431Z" stroke="#2E2E2E"/>
</svg>
