<svg width="171" height="59" viewBox="0 0 171 59" fill="none" xmlns="http://www.w3.org/2000/svg">
<path d="M44.4882 54.4099V11.2466C44.6376 10.8534 44.8662 10.495 45.1598 10.1939C45.6992 9.68703 46.4166 9.41313 47.1565 9.43154H39.6238C40.3706 9.43164 41.0876 9.72495 41.6204 10.2483C41.9147 10.5456 42.1381 10.9054 42.2738 11.3011C42.3496 11.4868 42.3985 11.6824 42.419 11.8819V11.9727C42.4454 12.0553 42.4454 12.1442 42.419 12.2268L24.0502 41.2685C24.0015 41.3281 23.9407 41.3767 23.8719 41.4111C23.8031 41.4455 23.7277 41.465 23.6508 41.4682C23.5763 41.4661 23.5032 41.447 23.4372 41.4124C23.3711 41.3778 23.3138 41.3286 23.2697 41.2685V41.2685L4.91894 12.2268C4.89368 12.144 4.89368 12.0555 4.91894 11.9727C4.90776 11.9435 4.90776 11.9111 4.91894 11.8819C4.88431 11.6721 4.87214 11.4591 4.88263 11.2466C5.06303 10.8583 5.32271 10.5121 5.64498 10.2302C6.15596 9.73185 6.83725 9.44636 7.55084 9.43154H0C0.749841 9.4259 1.47244 9.71233 2.01477 10.2302C2.30908 10.5274 2.53246 10.8873 2.66821 11.2829V54.4099C2.53664 54.8075 2.31271 55.1683 2.01477 55.4626C1.47715 55.9921 0.754557 56.2916 0 56.2976H7.55084C6.97417 56.3027 6.40968 56.1317 5.93286 55.8073C5.45604 55.483 5.08963 55.0207 4.88263 54.4825C4.77269 54.1863 4.71734 53.8727 4.71928 53.5568V13.9693C4.72844 13.8505 4.78218 13.7396 4.86971 13.6588C4.95724 13.578 5.07208 13.5333 5.1912 13.5337C5.26659 13.5311 5.34135 13.5482 5.40816 13.5832C5.47498 13.6182 5.53156 13.6699 5.57238 13.7333L23.5601 42.2487L41.5478 13.7333C41.5938 13.6708 41.654 13.6201 41.7234 13.5854C41.7928 13.5507 41.8695 13.533 41.9471 13.5337C42.0644 13.5336 42.1771 13.5789 42.2617 13.6601C42.3463 13.7413 42.3962 13.8521 42.4009 13.9693V53.4842C42.4028 53.8001 42.3475 54.1137 42.2375 54.4099C42.0338 54.9467 41.6707 55.4083 41.197 55.7328C40.7233 56.0572 40.1616 56.229 39.5875 56.225H47.1202C46.3703 56.222 45.6523 55.9217 45.1235 55.39C44.8476 55.1097 44.6314 54.7762 44.4882 54.4099V54.4099ZM3.82987 54.4099C3.83243 54.4725 3.82198 54.535 3.79917 54.5934C3.77636 54.6519 3.74169 54.7049 3.69734 54.7493C3.653 54.7936 3.59995 54.8283 3.54153 54.8511C3.48311 54.8739 3.4206 54.8844 3.35795 54.8818C3.23278 54.8818 3.11275 54.8321 3.02424 54.7436C2.93574 54.6551 2.88602 54.535 2.88602 54.4099V11.2466C2.89071 11.1247 2.9425 11.0092 3.0305 10.9246C3.1185 10.84 3.23586 10.7928 3.35795 10.7929C3.41905 10.7904 3.48001 10.8003 3.53718 10.8221C3.59434 10.8438 3.64654 10.8768 3.69061 10.9192C3.73469 10.9616 3.76975 11.0124 3.79368 11.0687C3.81761 11.125 3.82992 11.1855 3.82987 11.2466V54.4099ZM44.3793 54.4099C44.3819 54.4725 44.3714 54.535 44.3486 54.5934C44.3258 54.6519 44.2912 54.7049 44.2468 54.7493C44.2025 54.7936 44.1494 54.8283 44.091 54.8511C44.0326 54.8739 43.9701 54.8844 43.9074 54.8818C43.7823 54.8818 43.6622 54.8321 43.5737 54.7436C43.4852 54.6551 43.4355 54.535 43.4355 54.4099V11.2466C43.4402 11.1247 43.492 11.0092 43.58 10.9246C43.668 10.84 43.7853 10.7928 43.9074 10.7929C43.9685 10.7904 44.0295 10.8003 44.0866 10.8221C44.1438 10.8438 44.196 10.8768 44.2401 10.9192C44.2842 10.9616 44.3192 11.0124 44.3432 11.0687C44.3671 11.125 44.3794 11.1855 44.3793 11.2466V54.4099Z" fill="black"/>
<path d="M74.1114 7.61624H73.6394C68.6782 7.73446 63.861 9.30796 59.7867 12.1412C55.7123 14.9745 52.5603 18.9425 50.7224 23.5523C48.8844 28.1621 48.4417 33.2103 49.4491 38.0697C50.4564 42.929 52.8696 47.3852 56.3885 50.8845C59.9075 54.3837 64.3772 56.7718 69.2421 57.7518C74.107 58.7319 79.1527 58.2608 83.7521 56.397C88.3514 54.5332 92.3017 51.359 95.1121 47.2687C97.9224 43.1785 99.4688 38.3526 99.5592 33.3907C99.5686 33.2336 99.5686 33.076 99.5592 32.9188C99.5303 26.1919 96.8354 19.7508 92.065 15.0077C87.2947 10.2646 80.8384 7.60657 74.1114 7.61624V7.61624ZM98.6153 33.3907C98.5396 38.2043 97.0488 42.8891 94.3286 46.8611C91.6085 50.8331 87.7794 53.9166 83.3186 55.7271C78.8579 57.5376 73.9629 57.9951 69.244 57.0425C64.525 56.09 60.1908 53.7694 56.7818 50.3703C53.3727 46.9711 51.0396 42.6437 50.0732 37.9275C49.1069 33.2114 49.5502 28.3151 51.3477 23.8491C53.1452 19.3831 56.2175 15.5451 60.1816 12.8133C64.1457 10.0816 68.8261 8.57717 73.6394 8.48749H74.1114C80.5926 8.4682 86.8164 11.0231 91.4147 15.5908C96.0129 20.1584 98.6094 26.3649 98.6334 32.8462C98.6368 33.0037 98.6308 33.1613 98.6153 33.3181V33.3907ZM98.7787 33.2637V32.5739C98.6845 26.1593 96.0894 20.0349 91.5463 15.5054C87.0032 10.9758 80.8711 8.39914 74.4562 8.32413H73.7665C73.7243 8.2849 73.6911 8.23702 73.6692 8.18375C73.6473 8.13049 73.6371 8.07311 73.6394 8.01556C73.6343 7.90246 73.6733 7.79179 73.7483 7.70699H74.4562C81.0239 7.77703 87.3049 10.4073 91.9627 15.038C96.6205 19.6687 99.2874 25.9342 99.3958 32.5013C99.4048 32.6161 99.4048 32.7314 99.3958 32.8462C99.4053 32.967 99.4053 33.0884 99.3958 33.2092C99.3166 33.2815 99.2126 33.3205 99.1054 33.3181C99.0451 33.3207 98.9849 33.3108 98.9287 33.2889C98.8724 33.2671 98.8213 33.2337 98.7787 33.1911V33.2637Z" fill="black"/>
<path d="M128.672 56.2976H136.223C135.646 56.3028 135.081 56.1317 134.605 55.8073C134.128 55.483 133.761 55.0208 133.554 54.4825L117.491 11.41C117.348 10.9784 117.106 10.5866 116.783 10.2665C116.296 9.78492 115.651 9.49496 114.968 9.44971H112.535C112.894 9.47561 113.245 9.56793 113.57 9.72197C113.905 9.87951 114.206 10.1017 114.455 10.3758C114.705 10.6499 114.897 10.9705 115.022 11.3193V11.3193L113.824 14.6772V14.8587L99.3034 54.7911C99.1491 55.2313 98.8619 55.6127 98.4815 55.8826C98.101 56.1525 97.6461 56.2975 97.1797 56.2976H103.206C102.908 56.2967 102.614 56.2369 102.34 56.1217C102.066 56.0064 101.817 55.8379 101.609 55.626C101.369 55.3933 101.189 55.1072 101.082 54.7911L115.204 15.0039L116.057 12.5898L116.692 14.3142L131.358 54.4099C131.22 54.8087 130.99 55.1694 130.687 55.4626C130.423 55.7281 130.109 55.9386 129.763 56.0819C129.417 56.2252 129.046 56.2985 128.672 56.2976ZM115.603 11.7004L114.423 15.0039L100.284 54.5006C100.284 54.5006 100.284 54.5006 100.284 54.5914C100.255 54.6532 100.209 54.7052 100.15 54.7407C100.092 54.7763 100.025 54.7938 99.9568 54.7911C99.9108 54.7937 99.8648 54.7866 99.8218 54.7702C99.7787 54.7538 99.7397 54.7285 99.7071 54.6959C99.6745 54.6633 99.6492 54.6243 99.6328 54.5812C99.6164 54.5382 99.6093 54.4922 99.6119 54.4462V54.4462L113.824 14.8769L113.933 14.5502L115.022 11.5371C115.049 11.4877 115.088 11.4465 115.136 11.4177C115.184 11.3889 115.239 11.3737 115.294 11.3737C115.373 11.3784 115.447 11.4129 115.501 11.4703C115.555 11.5276 115.585 11.6035 115.585 11.6823C115.591 11.688 115.597 11.6941 115.603 11.7004V11.7004ZM116.801 14.1871L116.365 12.8258V12.5898C116.37 12.4919 116.412 12.3996 116.483 12.332C116.554 12.2644 116.649 12.2267 116.747 12.2268C116.818 12.2203 116.889 12.236 116.951 12.2718C117.012 12.3076 117.062 12.3616 117.091 12.4265V12.4265L117.454 13.3703L132.338 53.6838C132.348 53.744 132.348 53.8052 132.338 53.8654C132.341 53.9328 132.329 54 132.305 54.0628C132.28 54.1256 132.243 54.1827 132.195 54.2304C132.147 54.2781 132.09 54.3154 132.028 54.3401C131.965 54.3647 131.897 54.3761 131.83 54.3736C131.728 54.3735 131.627 54.3444 131.541 54.2899C131.454 54.2353 131.384 54.1573 131.34 54.065L116.801 14.1871Z" fill="black"/>
<path d="M154.484 23.4805H144.683C144.286 23.3386 143.925 23.1103 143.627 22.8121C143.329 22.5139 143.1 22.1533 142.958 21.7562C142.849 21.46 142.793 21.1464 142.795 20.8305V12.2268C142.795 11.9052 142.85 11.5859 142.958 11.283C143.165 10.7447 143.532 10.2825 144.009 9.95814C144.486 9.63377 145.05 9.46273 145.627 9.46789H138.148C138.725 9.46273 139.29 9.63377 139.766 9.95814C140.243 10.2825 140.61 10.7447 140.817 11.283V54.4099C140.679 54.8034 140.448 55.1582 140.145 55.4445C139.852 55.748 139.491 55.9781 139.092 56.1161C138.79 56.2259 138.47 56.2812 138.148 56.2795H154.484C157.398 56.2833 160.261 55.5163 162.783 54.0563C165.304 52.5962 167.395 50.4952 168.842 47.9663C169.051 47.621 169.239 47.2634 169.405 46.8954C170.457 44.7031 171.002 42.3025 171.002 39.8709C170.983 35.5078 169.232 31.3307 166.135 28.2575C163.038 25.1842 158.848 23.466 154.484 23.4805V23.4805ZM142.777 26.2032C142.786 25.9119 142.841 25.6239 142.94 25.3501C143.078 24.9513 143.308 24.5906 143.612 24.2973C143.903 23.9954 144.265 23.7708 144.665 23.6439H151.326C151.387 23.6414 151.448 23.6513 151.505 23.6731C151.563 23.6948 151.615 23.7278 151.659 23.7702C151.703 23.8126 151.738 23.8634 151.762 23.9197C151.786 23.976 151.798 24.0365 151.798 24.0976C151.797 24.2077 151.758 24.3141 151.689 24.3997C151.62 24.4853 151.524 24.5451 151.417 24.5696C148.464 25.1645 145.747 26.6019 143.594 28.708C143.553 28.7549 143.503 28.7922 143.447 28.8174C143.39 28.8425 143.329 28.8547 143.267 28.8532C143.142 28.8532 143.022 28.8035 142.933 28.715C142.845 28.6265 142.795 28.5065 142.795 28.3813L142.777 26.2032ZM141.779 54.4099C141.769 54.5287 141.716 54.6396 141.628 54.7204C141.541 54.8012 141.426 54.8459 141.307 54.8455C141.182 54.8455 141.062 54.7958 140.973 54.7073C140.885 54.6188 140.835 54.4988 140.835 54.3736V11.2467C140.835 11.1215 140.885 11.0015 140.973 10.913C141.062 10.8245 141.182 10.7748 141.307 10.7748C141.432 10.7748 141.552 10.8245 141.64 10.913C141.729 11.0015 141.779 11.1215 141.779 11.2467V54.4099ZM151.344 56.1343H144.683C144.286 55.9923 143.925 55.764 143.627 55.4659C143.329 55.1677 143.1 54.807 142.958 54.4099C142.849 54.1138 142.793 53.8001 142.795 53.4842V51.3968C142.795 51.2717 142.845 51.1516 142.933 51.0631C143.022 50.9746 143.142 50.9249 143.267 50.9249C143.329 50.9234 143.39 50.9357 143.447 50.9608C143.503 50.9859 143.553 51.0232 143.594 51.0701C145.752 53.1794 148.476 54.617 151.435 55.2086C151.539 55.2322 151.633 55.2894 151.702 55.3713C151.771 55.4532 151.811 55.5555 151.816 55.6623C151.818 55.7759 151.778 55.8861 151.705 55.9728C151.631 56.0595 151.529 56.1168 151.417 56.1343H151.344ZM168.806 45.8608C168.642 46.2238 168.479 46.5868 168.297 46.9135C167.127 49.1641 165.427 51.0959 163.343 52.5422C161.259 53.9886 158.854 54.9059 156.336 55.215C153.819 55.5242 151.264 55.2158 148.892 54.3166C146.52 53.4173 144.402 51.9542 142.722 50.0537V29.7063C145.141 26.9151 148.475 25.0766 152.126 24.5205C155.777 23.9644 159.506 24.727 162.646 26.6716C165.786 28.6162 168.13 31.6156 169.259 35.1321C170.388 38.6485 170.227 42.4521 168.806 45.8608V45.8608Z" fill="black"/>
<path d="M86.5804 23.0269C86.5001 22.4098 86.3603 21.8019 86.1629 21.2118C86.054 20.7761 85.9451 20.1771 85.818 19.7597C85.6224 19.005 85.3166 18.2833 84.9105 17.6178C84.5656 16.9826 77.65 8.54232 77.2689 8.23375C77.0783 8.0778 76.9496 7.85897 76.9058 7.61661V7.61661L77.1963 7.72552C77.1642 7.54601 77.0673 7.38453 76.924 7.27174C76.8641 7.23354 76.8192 7.17584 76.7969 7.10838C76.99 7.18078 77.2028 7.18078 77.3959 7.10838C77.2543 7.08762 77.1185 7.03821 76.9966 6.96317L76.7425 6.81796L76.4339 6.5094L76.7062 6.63645C76.6138 6.48989 76.4897 6.36585 76.3432 6.27343C76.4779 6.21944 76.5966 6.13198 76.688 6.01932C76.5914 6.02834 76.4942 6.02834 76.3976 6.01932H76.0709H76.2161L75.9075 5.80151H76.0346H75.9075H76.0528L75.8168 5.6926C75.9075 5.6926 76.0165 5.6926 76.1254 5.6926L75.6897 5.47479C75.6142 5.43504 75.5301 5.41427 75.4447 5.41427C75.3593 5.41427 75.2752 5.43504 75.1997 5.47479V5.47479H75C75.1589 5.42085 75.3312 5.42085 75.4901 5.47479V5.36588H75.6897L75.9257 5.45663C76.1068 5.43925 76.2891 5.43925 76.4702 5.45663V5.45663L76.1617 5.23882H76.5428H76.3795L76.198 5.12992C76.198 5.12992 76.198 5.03916 76.198 4.98471C76.198 4.93025 76.198 5.11176 76.3613 5.14807L76.924 5.45663L76.688 5.29328L76.4339 4.74874C76.4206 4.73023 76.4135 4.70801 76.4135 4.68522C76.4135 4.66242 76.4206 4.6402 76.4339 4.62169C76.6708 4.69614 76.8922 4.81299 77.0874 4.96656C77.257 5.12085 77.4754 5.21077 77.7045 5.22067V5.22067C77.6451 5.20446 77.5824 5.20446 77.523 5.22067C77.4471 5.20821 77.3757 5.17669 77.3154 5.12906C77.2551 5.08144 77.2078 5.01928 77.1781 4.94841C77.5593 5.09361 77.9223 5.20252 78.3035 5.36588C78.1736 5.21777 78.0341 5.07832 77.886 4.94841H78.4668H79.1203H79.2473C79.1345 4.85373 78.9949 4.79662 78.848 4.78505H78.6121C78.7571 4.76542 78.8981 4.72251 79.0295 4.65799H78.5576C78.5576 4.65799 78.5576 4.65799 78.5576 4.54908C78.6741 4.59555 78.8041 4.59555 78.9206 4.54908H79.6467H79.4833H79.1747C79.1747 4.54908 79.0658 4.54908 79.0477 4.44018C79.0619 4.43365 79.0774 4.43027 79.0931 4.43027C79.1087 4.43027 79.1242 4.43365 79.1384 4.44018H79.3381H79.5196C79.7018 4.37654 79.9001 4.37654 80.0823 4.44018C80.129 4.4584 80.1808 4.4584 80.2275 4.44018C80.079 4.22349 79.8615 4.06353 79.6104 3.9864C80.0064 3.84865 80.4264 3.79306 80.8446 3.82304V3.82304C80.6983 3.73245 80.5255 3.69406 80.3546 3.71413C80.2841 3.73905 80.2072 3.73905 80.1367 3.71413C80.4035 3.58469 80.6937 3.5106 80.9898 3.49632C80.8265 3.40557 80.6631 3.49632 80.4998 3.49632L80.9354 3.38741C80.7751 3.34247 80.6056 3.34247 80.4453 3.38741H80.5905C80.785 3.29693 80.9939 3.24162 81.2077 3.22405C80.9637 3.16023 80.7074 3.16023 80.4635 3.22405C80.6769 3.08933 80.9198 3.00836 81.1714 2.98809C81.0468 2.95229 80.9147 2.95229 80.7902 2.98809H80.5542C80.715 2.83853 80.9073 2.72689 81.1169 2.66137C80.9283 2.63448 80.7361 2.67291 80.5724 2.77028C80.654 2.67557 80.7611 2.60628 80.8809 2.57062C81.0003 2.54411 81.1083 2.48059 81.1895 2.38911C80.9959 2.45327 80.7943 2.48993 80.5905 2.49801C80.6095 2.45202 80.6426 2.41321 80.6849 2.38713C80.7273 2.36105 80.7769 2.34903 80.8265 2.3528C81.0054 2.33442 81.1786 2.27877 81.3347 2.18944V2.18944C81.1177 2.2164 80.8983 2.2164 80.6813 2.18944C80.9445 2.04246 81.2346 1.94988 81.5344 1.91718C81.3784 1.88813 81.2184 1.88813 81.0624 1.91718C81.2433 1.81811 81.4397 1.75059 81.6433 1.71752C81.8244 1.70013 82.0067 1.70013 82.1878 1.71752C82.1178 1.50818 82.0135 1.3119 81.8792 1.13668H82.1697C82.2534 1.15431 82.34 1.15431 82.4238 1.13668H82.0789H82.2967H82.5871H82.7686H82.6053H82.2604C82.1882 1.12626 82.1148 1.12626 82.0426 1.13668L80.7176 1.69937C80.615 1.74291 80.5176 1.7977 80.4272 1.86272C80.3046 1.97203 80.2216 2.11882 80.1912 2.2802C80.0641 2.60692 79.9552 2.95179 79.8463 3.29666C79.7809 3.49428 79.6743 3.67576 79.5334 3.82909C79.3926 3.98241 79.2209 4.10409 79.0295 4.18606H78.8117L77.9768 3.9864C77.7355 4.01352 77.492 4.01352 77.2507 3.9864C76.8332 3.9864 76.4339 3.85934 76.0346 3.76859C75.8359 3.74146 75.6344 3.74146 75.4356 3.76859H75.0544C74.7626 3.82247 74.4883 3.94712 74.2558 4.13161L74.1106 4.27682C73.9456 4.51635 73.8628 4.80298 73.8746 5.09361C73.8746 5.34773 73.8746 5.60184 73.8746 5.85596C73.8875 5.95841 73.8875 6.06207 73.8746 6.16453C73.8746 5.96486 73.8746 5.96486 73.8746 5.92856V7.88888V6.45494V5.94671V6.16453V5.74705C73.8746 5.51109 73.8746 5.27512 73.8746 5.02101C73.8611 4.72693 73.7381 4.44854 73.5298 4.24051C73.3537 4.08303 73.1418 3.97088 72.9126 3.91379C72.6295 3.83299 72.3357 3.79625 72.0414 3.80489H71.9506L71.1883 3.9501C70.8211 4.04594 70.4422 4.08873 70.0629 4.07715C69.7243 4.09581 69.385 4.09581 69.0464 4.07715C68.7172 4.03496 68.4175 3.86557 68.2115 3.60523C67.8382 3.42645 67.5372 3.12545 67.3584 2.75213C67.2495 2.46171 67.1587 2.15314 67.0498 1.84457C67.0168 1.7265 66.9571 1.6176 66.8753 1.52632C66.7934 1.43504 66.6917 1.36383 66.5779 1.31819C66.106 1.10038 65.634 0.900718 65.1621 0.719208C64.9689 0.70167 64.7745 0.70167 64.5813 0.719208L64.9806 0.846266C65.0692 0.866744 65.1507 0.910622 65.2166 0.973323H64.8535C65.0169 1.08223 65.2347 0.973323 65.4162 1.15483C65.2423 1.16497 65.0709 1.2017 64.908 1.26374C65.1075 1.25363 65.3075 1.25363 65.507 1.26374C65.7011 1.29951 65.8862 1.37355 66.0515 1.48155H65.7974C65.7332 1.45627 65.6619 1.45627 65.5977 1.48155C65.8883 1.5192 66.1705 1.60509 66.4327 1.73567C66.2226 1.77301 66.0075 1.77301 65.7974 1.73567L66.1967 1.89903H66.4145C66.4509 1.88398 66.4911 1.88114 66.5292 1.89094C66.5673 1.90073 66.6012 1.92263 66.6257 1.95334C66.6503 1.98405 66.6642 2.0219 66.6654 2.06121C66.6666 2.10052 66.655 2.13915 66.6323 2.17129H66.0152L66.3056 2.29835C66.4223 2.3406 66.5278 2.40888 66.6142 2.49801C66.4494 2.40329 66.2582 2.36504 66.0697 2.38911C66.2756 2.45089 66.4628 2.5632 66.6142 2.71583H66.3601C66.2496 2.67044 66.1257 2.67044 66.0152 2.71583C66.2717 2.72615 66.5214 2.80107 66.7413 2.93364H66.3419C66.2819 2.90713 66.217 2.89344 66.1513 2.89344C66.0857 2.89344 66.0208 2.90713 65.9608 2.93364C66.2696 2.94869 66.5695 3.04241 66.832 3.2059C66.6584 3.16969 66.4792 3.16969 66.3056 3.2059L66.7776 3.33296C66.596 3.33296 66.4327 3.33296 66.2693 3.33296C66.5709 3.34956 66.8666 3.42349 67.1406 3.55077C67.0699 3.5743 66.9935 3.5743 66.9228 3.55077C66.8297 3.53677 66.7348 3.54245 66.6442 3.56747C66.5535 3.59248 66.4691 3.63626 66.3964 3.69598C66.5944 3.65988 66.7973 3.65988 66.9954 3.69598C67.207 3.72483 67.4143 3.7797 67.6125 3.85934C67.3848 3.85941 67.1651 3.94342 66.9954 4.09531H67.1587H67.3402C67.4788 4.07661 67.6192 4.07661 67.7577 4.09531C67.8637 4.13127 67.9785 4.13127 68.0844 4.09531C68.0844 4.09531 68.0844 4.09531 68.0844 4.09531H67.9755H67.794H67.4491H68.0663C68.198 4.1222 68.3339 4.1222 68.4656 4.09531H68.6108H68.1207C68.2576 4.16239 68.4049 4.20538 68.5564 4.22236H68.4293H68.1389C68.0488 4.23887 67.9663 4.28332 67.9029 4.34942H68.0118H68.6653H69.2643L69.0464 4.53093C68.9012 4.67614 68.9012 4.67614 68.8649 4.76689C68.9777 4.70005 69.1002 4.65107 69.228 4.62169L69.5184 4.51278L69.8814 4.40387C69.8493 4.47135 69.801 4.52986 69.7408 4.57419C69.6807 4.61852 69.6105 4.6473 69.5365 4.65799C69.4767 4.64524 69.4148 4.64524 69.355 4.65799C69.5776 4.66488 69.7957 4.59432 69.9721 4.45833L70.2444 4.25867L70.553 4.11346H70.68C70.6928 4.13879 70.6995 4.16677 70.6995 4.19514C70.6995 4.22351 70.6928 4.25148 70.68 4.27682L70.4259 4.42202C70.3499 4.46757 70.2922 4.53817 70.2626 4.62169L70.68 4.40387C70.8199 4.34876 70.9356 4.24586 71.0068 4.11346C71.0068 4.20421 71.0068 4.24051 71.0068 4.29497L70.7345 4.42202H71.1157C71.083 4.4731 71.0397 4.51645 70.9886 4.54908C70.9886 4.54908 70.8615 4.54908 70.8434 4.65799H71.1883C71.3746 4.64801 71.5554 4.59187 71.7147 4.49463H71.8417V4.62169H72.0958C72.1786 4.59643 72.2671 4.59643 72.3499 4.62169H72.1503V4.73059C72.0896 4.69554 72.0207 4.67709 71.9506 4.67709C71.8805 4.67709 71.8117 4.69554 71.7509 4.73059C71.5627 4.8001 71.3806 4.8851 71.2064 4.98471C71.2064 4.98471 71.4061 4.98471 71.4968 4.98471L71.279 5.09361H71.4242H71.2972H71.4242L70.9886 5.80151H71.152H70.8252C70.7226 5.81026 70.6194 5.81026 70.5167 5.80151C70.6157 5.90595 70.7325 5.99199 70.8615 6.05562L70.6619 6.21898C70.5993 6.27396 70.5497 6.34216 70.5167 6.41864L70.7889 6.29158L70.2807 6.56385C70.1598 6.64439 70.0241 6.69993 69.8814 6.72721C70.0681 6.80011 70.2755 6.80011 70.4622 6.72721C70.4549 6.7623 70.4396 6.79526 70.4176 6.82356C70.3955 6.85187 70.3674 6.87478 70.3352 6.89057C70.1866 7.00657 70.089 7.17581 70.0629 7.3625C70.1741 7.42924 70.2724 7.51529 70.3533 7.61661C70.3189 7.86729 70.1888 8.09493 69.9903 8.2519L62.4032 17.5997C62.1691 18.0518 61.9806 18.5261 61.8405 19.0155C61.659 19.5056 61.5137 19.9775 61.3504 20.4676C61.0329 21.3171 60.8137 22.2001 60.697 23.0995C60.6166 23.635 60.6166 24.1794 60.697 24.7149C60.7733 25.1905 60.9666 25.6396 61.2596 26.0218L61.3685 26.2033L61.8042 26.8567C61.8376 26.9181 61.888 26.9685 61.9494 27.0019C61.9299 26.7952 61.8615 26.5961 61.7497 26.4211C61.7497 26.4211 61.7497 26.3122 61.7497 26.2578C61.8483 26.4047 61.9575 26.5442 62.0764 26.6752C62.1959 26.8396 62.2652 27.035 62.2761 27.2379V27.2379C62.3304 27.0666 62.3304 26.8828 62.2761 26.7115L62.1127 26.2759C62.1 26.2506 62.0933 26.2226 62.0933 26.1942C62.0933 26.1659 62.1 26.1379 62.1127 26.1125C62.1127 26.1125 62.1127 26.1125 62.1127 26.2033L62.2216 26.4393C62.2434 26.4819 62.2777 26.5168 62.3198 26.5395C62.362 26.5622 62.41 26.5716 62.4576 26.5663C62.4576 26.403 62.3124 26.2759 62.3305 26.0762L62.4213 26.1851C62.5625 26.3806 62.714 26.5684 62.8751 26.7478C62.9201 26.7896 62.9563 26.8401 62.9812 26.8963C63.0062 26.9524 63.0195 27.0131 63.0203 27.0745C63.0553 27.0138 63.0738 26.945 63.0738 26.8749C63.0738 26.8048 63.0553 26.7359 63.0203 26.6752C62.9657 26.467 62.9657 26.2482 63.0203 26.0399C63.0203 26.0399 63.0203 26.1488 63.0203 26.2033C63.0203 26.2577 63.0203 26.3122 63.0203 26.3667C63.1519 26.4712 63.2419 26.6192 63.2744 26.7841C63.2744 26.7841 63.2744 26.9112 63.2744 26.9838C63.3599 26.8787 63.4166 26.7531 63.4389 26.6195C63.4612 26.4858 63.4483 26.3486 63.4015 26.2214L63.6556 26.6026C63.6997 26.5679 63.7355 26.5238 63.7606 26.4736C63.7858 26.4234 63.7995 26.3683 63.8008 26.3122C63.8008 26.3122 63.8008 26.2214 63.8008 26.167C63.8008 26.1125 63.8008 26.167 63.8008 26.0581L64.0549 26.3485L64.1638 26.5663C64.1743 26.6325 64.1743 26.6998 64.1638 26.766C64.2165 26.6193 64.2165 26.4589 64.1638 26.3122C64.1359 26.2236 64.1359 26.1286 64.1638 26.0399C64.2815 26.1108 64.3722 26.2189 64.4215 26.3471C64.4708 26.4753 64.476 26.6164 64.4361 26.7478C64.4999 26.7018 64.5526 26.642 64.5903 26.5729C64.628 26.5038 64.6497 26.4271 64.6539 26.3485V26.0399C64.6304 25.9692 64.6304 25.8928 64.6539 25.8221C64.6539 25.931 64.6539 26.0399 64.7628 26.1307C64.8163 25.9408 64.8163 25.7398 64.7628 25.5499L65.5433 25.7677C65.5662 25.8316 65.5967 25.8925 65.634 25.9492C65.6563 25.9806 65.6865 26.0056 65.7216 26.0215C65.7567 26.0375 65.7954 26.0438 65.8337 26.0399C65.6522 25.8584 65.7248 25.6588 65.8337 25.4591C65.9426 25.2594 65.9245 25.4591 65.9608 25.4591C65.9971 25.4591 65.9608 25.2776 65.9608 25.1868L66.5053 25.5317C66.5053 25.4047 66.5053 25.2776 66.5053 25.1505L66.6868 25.2776V25.1687C66.7957 25.2594 66.8683 25.4046 67.0317 25.4228C67.0256 25.3079 67.0256 25.1928 67.0317 25.0779C67.0256 24.957 67.0256 24.8358 67.0317 24.7149L67.1769 24.842L67.4491 25.0779C67.4988 25.1066 67.5552 25.1217 67.6125 25.1217C67.6699 25.1217 67.7262 25.1066 67.7759 25.0779C67.7243 25.0476 67.6851 25 67.6651 24.9435C67.6452 24.8871 67.6459 24.8254 67.667 24.7694V24.6242L68.0663 24.8783C68.0628 24.836 68.0628 24.7935 68.0663 24.7512C68.0584 24.7092 68.0584 24.6661 68.0663 24.6242C68.0573 24.467 68.0573 24.3094 68.0663 24.1522C68.1059 24.1602 68.143 24.1776 68.1746 24.2029C68.2062 24.2281 68.2313 24.2605 68.2478 24.2974L68.3749 24.5152C68.3942 24.5452 68.4213 24.5694 68.4532 24.5854C68.4851 24.6014 68.5208 24.6085 68.5564 24.606C68.5564 24.4063 68.393 24.1885 68.5564 23.9707V24.0615C68.6099 24.1741 68.6705 24.2832 68.7379 24.3882C68.7379 24.3882 68.7379 24.3882 68.7379 24.3882V23.9526H69.1735L69.2643 23.4625C69.2643 23.4625 69.2643 23.5895 69.355 23.644L69.5184 23.8981C69.5359 23.9363 69.564 23.9686 69.5994 23.9911C69.6349 24.0137 69.676 24.0255 69.718 24.0252C69.6921 23.7389 69.7422 23.4509 69.8632 23.1902C69.8729 23.2197 69.8729 23.2515 69.8632 23.281C69.9132 23.3743 69.9556 23.4714 69.9903 23.5714C70.0057 23.6111 70.0334 23.6448 70.0693 23.6677C70.1052 23.6905 70.1475 23.7013 70.19 23.6985C70.1583 23.5251 70.1698 23.3466 70.2237 23.1788C70.2775 23.011 70.3719 22.859 70.4985 22.7364C70.5625 23.0052 70.7009 23.2506 70.8979 23.4443V23.408C70.8707 23.2397 70.8707 23.0681 70.8979 22.8998C70.9027 22.845 70.9199 22.792 70.9482 22.7449C70.9765 22.6977 71.0151 22.6576 71.0612 22.6275V22.8272L71.152 22.5912C71.1607 22.6939 71.1607 22.7971 71.152 22.8998C71.152 22.8998 71.152 23.0269 71.152 23.045C71.152 23.3717 71.152 23.5169 71.2972 23.6258C71.4424 23.7348 71.1701 23.3354 71.2972 23.2084C71.4242 23.0813 71.2972 23.4262 71.4605 23.4806C71.6239 23.5351 71.4605 23.9163 71.5876 24.0796C71.7147 24.243 71.5876 23.9526 71.5876 23.88L71.6965 24.0796L71.8054 24.2611C71.8054 24.2611 71.8054 24.4063 71.9143 24.4426C71.878 24.2874 71.878 24.1259 71.9143 23.9707V24.3337L72.0414 24.243V24.5334C72.0324 24.658 72.0713 24.7814 72.1503 24.8783C72.1597 24.9062 72.1764 24.9311 72.1988 24.9502C72.2212 24.9694 72.2483 24.9822 72.2773 24.9872C72.2423 24.9265 72.2238 24.8576 72.2238 24.7875C72.2238 24.7174 72.2423 24.6486 72.2773 24.5879C72.3313 24.7468 72.3313 24.919 72.2773 25.0779C72.4044 24.9872 72.4225 24.8601 72.4951 24.7512V25.3502C72.6 25.1965 72.674 25.0239 72.713 24.842C72.713 25.0598 72.713 25.2776 72.8763 25.4591C72.8763 25.3502 72.8763 25.205 73.0397 25.1142V25.3139V25.6406C73.0397 25.6406 73.0397 25.6406 73.0397 25.5317C73.0298 25.417 73.0298 25.3016 73.0397 25.1868C73.1486 25.1868 73.1304 25.1868 73.1304 25.0416V24.6968C73.1304 24.6968 73.1304 24.6968 73.1304 24.8238C73.1395 24.9204 73.1395 25.0176 73.1304 25.1142C73.127 25.1475 73.1339 25.181 73.1501 25.2102C73.1664 25.2394 73.1912 25.2629 73.2212 25.2776C73.1769 25.407 73.1769 25.5475 73.2212 25.6769C73.3119 25.5862 73.2212 25.4773 73.3119 25.3865C73.3037 25.2899 73.3037 25.1927 73.3119 25.0961C73.4208 25.1868 73.3119 25.3139 73.439 25.4228C73.5842 25.2413 73.439 25.0235 73.6024 24.8238L73.7113 25.0779C73.7394 25.1635 73.7824 25.2434 73.8383 25.3139C73.8311 25.2112 73.8311 25.1081 73.8383 25.0053C73.8296 24.9027 73.8296 24.7994 73.8383 24.6968C73.8383 24.8057 73.8383 24.9327 74.0561 25.0235C73.9932 24.8599 73.9932 24.6788 74.0561 24.5152C74.0967 24.5773 74.1184 24.6498 74.1184 24.724C74.1184 24.7981 74.0967 24.8707 74.0561 24.9327C74.0945 24.928 74.1311 24.914 74.1627 24.8918C74.1944 24.8697 74.2201 24.8401 74.2376 24.8057C74.2834 24.6641 74.2834 24.5116 74.2376 24.37V24.1885L74.3465 24.2793V23.9163V24.1522C74.3465 24.1522 74.3465 24.2974 74.3465 24.3882L74.637 23.8255C74.637 23.8255 74.637 23.9526 74.637 24.0252C74.637 24.0978 74.8003 23.644 74.7822 23.4262C74.764 23.2084 74.8911 23.2628 74.9455 23.1358C75 23.0087 74.9455 23.281 74.9455 23.3536V23.5532C75.0182 23.4892 75.0693 23.4043 75.0921 23.3101C75.1148 23.2159 75.108 23.117 75.0726 23.0269C75.0726 23.0269 75.0726 22.918 75.0726 22.8817C75.0817 22.8093 75.0817 22.7362 75.0726 22.6638C75.0726 22.6638 75.0726 22.6638 75.0726 22.5186C75.0726 22.3734 75.0726 22.7183 75.2178 22.7909V22.5731C75.2589 22.6066 75.2928 22.6479 75.3178 22.6946C75.3427 22.7414 75.3581 22.7926 75.363 22.8453C75.3988 23.0129 75.3988 23.1861 75.363 23.3536C75.363 23.3536 75.363 23.4625 75.363 23.4988C75.5462 23.3074 75.6719 23.0684 75.726 22.809C75.8584 22.9352 75.9563 23.0933 76.0103 23.268C76.0644 23.4428 76.0727 23.6285 76.0346 23.8074L76.1798 23.7166C76.1892 23.6748 76.1892 23.6314 76.1798 23.5895L76.325 23.2628C76.4444 23.524 76.4944 23.8116 76.4702 24.0978C76.5324 24.087 76.5911 24.0616 76.6416 24.0238C76.6921 23.9859 76.7329 23.9366 76.7606 23.88L76.8877 23.6077V23.5169L76.9966 24.0252H78.249C78.2392 24.1823 78.2392 24.3399 78.249 24.4971C78.3611 24.3334 78.4641 24.1638 78.5576 23.9889C78.5796 24.0405 78.5909 24.0961 78.5909 24.1522C78.5909 24.2084 78.5796 24.2639 78.5576 24.3156V24.5515C78.5914 24.5475 78.6239 24.5355 78.6522 24.5165C78.6806 24.4976 78.7042 24.4723 78.721 24.4426L78.8662 24.2067C78.8858 24.174 78.9121 24.1457 78.9434 24.1239C78.9747 24.102 79.0102 24.0869 79.0477 24.0796C79.0477 24.0796 79.0477 24.0796 79.0477 24.0796C79.0387 24.2368 79.0387 24.3944 79.0477 24.5515C79.0477 24.5515 79.0477 24.5515 79.0477 24.6968V24.8057C79.1445 24.762 79.2359 24.7072 79.3199 24.6423L79.5922 24.4608V24.6242H79.683C79.7029 24.6843 79.7049 24.7488 79.6888 24.8101C79.6727 24.8713 79.6391 24.9265 79.5922 24.969C79.7333 24.9718 79.8699 24.9198 79.9734 24.8238L80.2093 24.606L80.3183 24.5152C80.3243 24.6362 80.3243 24.7573 80.3183 24.8783C80.3346 24.9926 80.3346 25.1088 80.3183 25.2231C80.3877 25.2157 80.4521 25.1835 80.4998 25.1324L80.645 24.9872V25.0961C80.645 25.0961 80.772 24.9872 80.8628 24.9872C80.9535 24.9872 80.8628 24.9872 80.8628 25.0779C80.8718 25.1685 80.8718 25.2597 80.8628 25.3502L81.3892 25.0053C81.397 25.0412 81.397 25.0784 81.3892 25.1142C81.3708 25.1359 81.3602 25.1632 81.3591 25.1917C81.3581 25.2201 81.3666 25.2481 81.3834 25.2711C81.4001 25.2941 81.4241 25.3108 81.4515 25.3186C81.4788 25.3264 81.508 25.3247 81.5344 25.3139C81.5344 25.5136 81.6796 25.6951 81.5344 25.8947C81.5782 25.8927 81.6209 25.8801 81.6589 25.8579C81.6968 25.8358 81.7288 25.8048 81.7522 25.7677C81.7582 25.7134 81.7582 25.6586 81.7522 25.6043L81.8974 25.2957C81.8529 25.4929 81.8529 25.6975 81.8974 25.8947C81.8974 25.8947 81.8974 25.6951 82.0063 25.6043C82.0226 25.676 82.0226 25.7504 82.0063 25.8221C82.0063 25.931 82.0063 26.0399 82.0063 26.1488C82.0132 26.2218 82.0363 26.2923 82.074 26.3551C82.1117 26.4179 82.163 26.4715 82.2241 26.5119C82.1756 26.3829 82.1746 26.2409 82.2211 26.1112C82.2677 25.9816 82.3588 25.8727 82.4782 25.804C82.5147 25.8973 82.5147 26.001 82.4782 26.0944C82.4336 26.2362 82.4336 26.3882 82.4782 26.53V26.3485C82.4782 26.1307 82.7323 26.0036 82.8412 25.804V25.931C82.8412 25.931 82.8412 26.0399 82.8412 26.0944C82.8461 26.1492 82.8633 26.2022 82.8916 26.2493C82.9199 26.2965 82.9585 26.3366 83.0046 26.3667C83.0787 26.2328 83.1637 26.1053 83.2587 25.9855C83.2076 26.1108 83.1907 26.2474 83.2098 26.3814C83.229 26.5154 83.2834 26.6419 83.3676 26.7478C83.3676 26.7478 83.3676 26.6026 83.3676 26.5482C83.3771 26.4664 83.4029 26.3873 83.4434 26.3156C83.4839 26.2439 83.5384 26.181 83.6036 26.1307C83.6151 26.105 83.6211 26.0772 83.6211 26.049C83.6211 26.0209 83.6151 25.993 83.6036 25.9673C83.583 25.9416 83.5717 25.9096 83.5717 25.8766C83.5717 25.8436 83.583 25.8116 83.6036 25.7858C83.6036 25.7858 83.6036 25.7858 83.6036 25.8766C83.6485 26.0368 83.6485 26.2064 83.6036 26.3667V26.53C83.5712 26.6116 83.5712 26.7025 83.6036 26.7841C83.6019 26.6932 83.6188 26.6028 83.6531 26.5186C83.6874 26.4344 83.7385 26.358 83.8033 26.2941C83.9401 26.1449 84.0674 25.9873 84.1844 25.8221C84.1844 25.8221 84.1844 25.7314 84.3115 25.7132C84.2825 25.8817 84.2337 26.0462 84.1663 26.2033C84.2236 26.1996 84.279 26.181 84.3268 26.1491C84.3746 26.1172 84.4131 26.0733 84.4385 26.0218C84.4385 25.931 84.4385 25.8221 84.5656 25.7132C84.5583 25.8411 84.521 25.9654 84.4567 26.0762C84.3422 26.2736 84.2974 26.5038 84.3296 26.7297C84.3075 26.7944 84.3075 26.8646 84.3296 26.9293C84.3296 26.9293 84.3296 26.8204 84.3296 26.766C84.349 26.6347 84.3856 26.5065 84.4385 26.3848L84.8379 25.8403C84.8379 25.8403 84.8379 25.9492 84.8379 26.0036C84.7573 26.1245 84.7018 26.2603 84.6745 26.403C84.6745 26.403 84.6745 26.5482 84.6745 26.6026L84.8197 26.4393L85.2553 25.7677L85.3642 25.6043C85.6067 25.2959 85.7744 24.9356 85.8543 24.5515C86.1782 24.0865 86.4235 23.5714 86.5804 23.0269V23.0269ZM70.7526 6.41864H70.8615H70.7526ZM76.4339 6.34604H76.5428H76.4158H76.4339Z" fill="black"/>
</svg>
