<svg width="32" height="32" viewBox="0 0 32 32" fill="none" xmlns="http://www.w3.org/2000/svg">
<path d="M11 12V10C11 8.67392 11.5268 7.40215 12.4645 6.46447C13.4021 5.52678 14.6739 5 16 5C17.3261 5 18.5979 5.52678 19.5355 6.46447C20.4732 7.40215 21 8.67392 21 10V12H24C24.2652 12 24.5196 12.1054 24.7071 12.2929C24.8946 12.4804 25 12.7348 25 13V25C25 25.2652 24.8946 25.5196 24.7071 25.7071C24.5196 25.8946 24.2652 26 24 26H8C7.73478 26 7.48043 25.8946 7.29289 25.7071C7.10536 25.5196 7 25.2652 7 25V13C7 12.7348 7.10536 12.4804 7.29289 12.2929C7.48043 12.1054 7.73478 12 8 12H11ZM11 14H9V24H23V14H21V16H19V14H13V16H11V14ZM13 12H19V10C19 9.20435 18.6839 8.44129 18.1213 7.87868C17.5587 7.31607 16.7956 7 16 7C15.2044 7 14.4413 7.31607 13.8787 7.87868C13.3161 8.44129 13 9.20435 13 10V12Z" fill="#2E2E2E" stroke="#FFFEFC"/>
</svg>
