<svg width="32" height="32" viewBox="0 0 32 32" fill="none" xmlns="http://www.w3.org/2000/svg">
<path d="M8 26C8 23.8783 8.84285 21.8434 10.3431 20.3431C11.8434 18.8429 13.8783 18 16 18C18.1217 18 20.1566 18.8429 21.6569 20.3431C23.1571 21.8434 24 23.8783 24 26H22C22 24.4087 21.3679 22.8826 20.2426 21.7574C19.1174 20.6321 17.5913 20 16 20C14.4087 20 12.8826 20.6321 11.7574 21.7574C10.6321 22.8826 10 24.4087 10 26H8ZM16 17C12.685 17 10 14.315 10 11C10 7.685 12.685 5 16 5C19.315 5 22 7.685 22 11C22 14.315 19.315 17 16 17ZM16 15C18.21 15 20 13.21 20 11C20 8.79 18.21 7 16 7C13.79 7 12 8.79 12 11C12 13.21 13.79 15 16 15Z" fill="#2E2E2E" stroke="#FFFEFC"/>
</svg>
